<?xml version="1.0" encoding="UTF-8"?>
<svg width="800" height="600" xmlns="http://www.w3.org/2000/svg">
  <defs>
    <style>
      .title { font: bold 18px Arial; fill: white; text-anchor: middle; }
      .module-box { fill: none; stroke: white; stroke-width: 2; }
      .import-box { fill: none; stroke: white; stroke-width: 1.5; }
      .text { font: 12px Arial; fill: white; text-anchor: middle; }
      .small-text { font: 10px Arial; fill: white; text-anchor: middle; }
      .arrow { stroke: white; stroke-width: 2; marker-end: url(#arrowhead); }
      .dotted-arrow { stroke: white; stroke-width: 1.5; stroke-dasharray: 5,5; marker-end: url(#arrowhead); }
    </style>
    <marker id="arrowhead" markerWidth="10" markerHeight="7" refX="9" refY="3.5" orient="auto">
      <polygon points="0 0, 10 3.5, 0 7" fill="white"/>
    </marker>
  </defs>
  
  <!-- Background -->
  <rect width="800" height="600" fill="#2f2f2f"/>
  
  <!-- Title -->
  <text x="400" y="30" class="title">lib-rpc-core/src/prelude.rs Flow Diagram</text>
  
  <!-- Main prelude module -->
  <rect x="300" y="60" width="200" height="80" class="module-box"/>
  <text x="400" y="85" class="text">prelude.rs</text>
  <text x="400" y="105" class="small-text">RPC modules prelude</text>
  <text x="400" y="125" class="small-text">Consolidates common imports</text>
  
  <!-- Internal crate imports (left side) -->
  <rect x="50" y="200" width="180" height="40" class="import-box"/>
  <text x="140" y="225" class="text">generate_common_rpc_fns</text>
  
  <rect x="50" y="260" width="180" height="40" class="import-box"/>
  <text x="140" y="285" class="text">DataRpcResult</text>
  
  <rect x="50" y="320" width="180" height="40" class="import-box"/>
  <text x="140" y="345" class="text">Result</text>
  
  <rect x="50" y="380" width="180" height="60" class="import-box"/>
  <text x="140" y="405" class="small-text">ParamsForCreate</text>
  <text x="140" y="420" class="small-text">ParamsForUpdate</text>
  <text x="140" y="435" class="small-text">ParamsIded, ParamsList</text>
  
  <!-- External crate imports (right side) -->
  <rect x="570" y="200" width="180" height="40" class="import-box"/>
  <text x="660" y="225" class="text">lib_core::ctx::Ctx</text>
  
  <rect x="570" y="260" width="180" height="40" class="import-box"/>
  <text x="660" y="285" class="text">lib_core::ModelManager</text>
  
  <rect x="570" y="320" width="180" height="40" class="import-box"/>
  <text x="660" y="345" class="text">paste::paste</text>
  
  <rect x="570" y="380" width="180" height="40" class="import-box"/>
  <text x="660" y="405" class="text">rpc_router</text>
  
  <!-- Usage area -->
  <rect x="250" y="480" width="300" height="80" class="module-box"/>
  <text x="400" y="505" class="text">RPC Modules</text>
  <text x="400" y="525" class="small-text">Import prelude for common types</text>
  <text x="400" y="545" class="small-text">and utilities across RPC handlers</text>
  
  <!-- Arrows from internal imports to prelude -->
  <line x1="230" y1="220" x2="300" y2="100" class="arrow"/>
  <line x1="230" y1="280" x2="300" y2="105" class="arrow"/>
  <line x1="230" y1="340" x2="300" y2="110" class="arrow"/>
  <line x1="230" y1="410" x2="300" y2="115" class="arrow"/>
  
  <!-- Arrows from external imports to prelude -->
  <line x1="570" y1="220" x2="500" y2="100" class="arrow"/>
  <line x1="570" y1="280" x2="500" y2="105" class="arrow"/>
  <line x1="570" y1="340" x2="500" y2="110" class="arrow"/>
  <line x1="570" y1="400" x2="500" y2="115" class="arrow"/>
  
  <!-- Arrow from prelude to usage -->
  <line x1="400" y1="140" x2="400" y2="480" class="arrow"/>
  
  <!-- Labels -->
  <text x="140" y="180" class="small-text">Internal Crate Exports</text>
  <text x="660" y="180" class="small-text">External Dependencies</text>
  
  <!-- Flow indicators -->
  <text x="265" y="160" class="small-text" transform="rotate(-25 265 160)">re-export</text>
  <text x="535" y="160" class="small-text" transform="rotate(25 535 160)">re-export</text>
  <text x="420" y="320" class="small-text" transform="rotate(-90 420 320)">use prelude::*</text>
</svg>